<?xml version="1.0" encoding="iso-8859-1"?>
<!-- Generator: Adobe Illustrator 19.0.0, SVG Export Plug-In . SVG Version: 6.00 Build 0)  -->
<svg version="1.1" id="Layer_1" xmlns="http://www.w3.org/2000/svg" xmlns:xlink="http://www.w3.org/1999/xlink" x="0px" y="0px"
	 viewBox="0 0 290.478 290.478" style="enable-background:new 0 0 290.478 290.478;" xml:space="preserve">
<g>
	<g>
		<path style="fill:#F9BA48;" d="M188.096,233.333h-85.714v-12.752c0-13.229-5.205-26.495-14.652-37.362
			c-12.157-13.957-18.79-31.838-18.681-50.343c0.238-39.876,32.8-73.814,72.586-75.652c21.086-0.948,41.019,6.481,56.214,20.995
			c15.205,14.524,23.581,34.095,23.581,55.114c0,18.671-6.848,36.633-19.286,50.581c-9.057,10.157-14.048,23.167-14.048,36.633
			V233.333z"/>
		<path style="fill:#333333;" d="M278.572,161.905v-57.143h-22.681c-2.667-10.357-6.762-20.233-12.214-29.462l16.043-16.048
			l-40.4-40.4l-16.048,16.043c-9.229-5.452-19.105-9.552-29.462-12.214V0h-57.143v22.681c-10.357,2.667-20.233,6.762-29.462,12.214
			L71.158,18.852l-40.4,40.4L46.801,75.3c-5.452,9.229-9.552,19.105-12.214,29.462H11.906v57.143h22.681
			c2.667,10.357,6.762,20.233,12.214,29.462l-16.043,16.048l40.4,40.4l16.057-16.052c1.876,1.086,3.9,2.152,6.01,3.214
			c-0.224,1.005-0.367,2.043-0.367,3.119c0,5.071,2.676,9.51,6.671,12.043c-1.181,2.081-1.91,4.448-1.91,7.005
			c0,5.071,2.676,9.51,6.671,12.043c-1.181,2.081-1.91,4.448-1.91,7.005c0,7.876,6.41,14.286,14.286,14.286h57.143
			c7.876,0,14.286-6.41,14.286-14.286c0-2.557-0.729-4.924-1.91-7.005c3.995-2.533,6.671-6.971,6.671-12.043
			c0-2.557-0.729-4.924-1.91-7.005c3.995-2.533,6.671-6.971,6.671-12.043c0-1.076-0.143-2.114-0.367-3.124
			c2.105-1.057,4.133-2.124,6.01-3.214l16.057,16.052l40.4-40.4l-16.043-16.048c5.457-9.229,9.552-19.105,12.214-29.462h22.681
			v0.005H278.572z M107.144,242.857c-2.629,0-4.762-2.133-4.762-4.762s2.133-4.762,4.762-4.762h76.19
			c2.629,0,4.762,2.133,4.762,4.762s-2.133,4.762-4.762,4.762h-4.762h-66.667H107.144z M130.953,183.919
			c2.752,1.152,5.767,1.795,8.929,1.795h0.595V200h9.524v-14.286h0.595c3.162,0,6.176-0.643,8.929-1.795v39.89h-28.571v-39.89
			H130.953z M183.334,257.143c0,2.629-2.133,4.762-4.762,4.762h-4.762h-57.143h-4.762c-2.629,0-4.762-2.133-4.762-4.762
			s2.133-4.762,4.762-4.762h66.667C181.201,252.381,183.334,254.514,183.334,257.143z M173.811,280.952h-57.143
			c-2.629,0-4.762-2.133-4.762-4.762s2.133-4.762,4.762-4.762h57.143c2.629,0,4.762,2.133,4.762,4.762
			C178.572,278.819,176.439,280.952,173.811,280.952z M247.487,156.11c-2.633,11.876-7.29,23.114-13.848,33.41l-2.052,3.224
			l14.667,14.671l-26.933,26.933l-14.671-14.667l-3.224,2.052c-2.767,1.767-5.924,3.457-9.348,5.148
			c-2.429-1.895-5.433-3.071-8.743-3.071h-14.286v-47.376c2.948-3.89,4.762-8.681,4.762-13.933v-1.19
			c0-12.8-10.414-23.214-23.214-23.214h-10.714c-7.548,0-13.69-6.143-13.69-13.69v-1.19c0-7.548,6.143-13.69,13.69-13.69h10.714
			c7.548,0,13.69,6.143,13.69,13.69v0.595h9.524v-0.595c0-12.8-10.414-23.214-23.214-23.214h-0.596V85.714h-9.524V100h-0.595
			c-12.8,0-23.214,10.414-23.214,23.214v1.19c0,12.8,10.414,23.214,23.214,23.214h10.714c7.548,0,13.69,6.143,13.69,13.69v1.19
			c0,7.548-6.143,13.69-13.69,13.69h-10.714c-7.548,0-13.69-4.762-13.69-14.286h-9.524c0,4.762,1.814,10.633,4.762,14.529v47.376
			h-14.286c-3.31,0-6.314,1.176-8.743,3.071c-3.424-1.69-6.581-3.381-9.348-5.148l-3.224-2.052l-14.671,14.667l-26.933-26.933
			l14.667-14.671l-2.052-3.224c-6.557-10.29-11.214-21.529-13.848-33.41l-0.829-3.729H21.43v-38.095h20.733l0.829-3.729
			c2.633-11.876,7.29-23.114,13.848-33.41l2.052-3.224L44.225,59.252l26.933-26.933l14.671,14.667l3.224-2.052
			c10.29-6.557,21.529-11.214,33.41-13.848l3.729-0.829V9.524h38.095v20.733l3.729,0.829c11.876,2.633,23.114,7.29,33.41,13.848
			l3.224,2.052l14.671-14.667l26.933,26.933l-14.667,14.671l2.052,3.224c6.557,10.29,11.214,21.529,13.848,33.41l0.829,3.729h20.733
			v38.095h-20.733L247.487,156.11z"/>
	</g>
</g>
<g>
</g>
<g>
</g>
<g>
</g>
<g>
</g>
<g>
</g>
<g>
</g>
<g>
</g>
<g>
</g>
<g>
</g>
<g>
</g>
<g>
</g>
<g>
</g>
<g>
</g>
<g>
</g>
<g>
</g>
</svg>
