<?xml version="1.0" encoding="iso-8859-1"?>
<!-- Generator: Adobe Illustrator 19.0.0, SVG Export Plug-In . SVG Version: 6.00 Build 0)  -->
<svg version="1.1" id="Capa_1" xmlns="http://www.w3.org/2000/svg" xmlns:xlink="http://www.w3.org/1999/xlink" x="0px" y="0px"
	 viewBox="0 0 60 60" style="enable-background:new 0 0 60 60;" xml:space="preserve">
<g>
	<g>
		<path d="M5,47h50c0.6,0,1-0.4,1-1V5c0-0.6-0.4-1-1-1H5C4.4,4,4,4.4,4,5v41C4,46.6,4.4,47,5,47z M14,6v4h2V6h13v15c0,0.6,0.4,1,1,1
			h19v-2H31v-8h13c0.6,0,1-0.4,1-1V8h-2v2H31V6h23v20H43v2h11v17H15V33h6v7h2v-7h8v8c0,0.6,0.4,1,1,1h17v-2H33v-7h14v-2h-9v-5
			c0-0.6-0.4-1-1-1h-9c-0.6,0-1,0.4-1,1v3h2v-2h7v4H14c-0.6,0-1,0.4-1,1v5H9v2h4v6H6V23h8c0.6,0,1-0.4,1-1v-5h-2v4H6v-6h15v13h2V14
			c0-0.6-0.4-1-1-1H6V6H14z"/>
		<path d="M59,0H1C0.4,0,0,0.4,0,1v49c0,0.6,0.4,1,1,1h34v8c0,0.4,0.3,0.8,0.6,0.9C35.8,60,35.9,60,36,60c0.3,0,0.6-0.1,0.7-0.3
			l7.7-8.7H59c0.6,0,1-0.4,1-1V1C60,0.4,59.6,0,59,0z M58,49.1H44c-0.2,0-0.5,0.1-0.7,0.3l-6.3,7V50c0-0.6-0.4-1-1-1H2V2h56V49.1z"
			/>
	</g>
</g>
<g>
</g>
<g>
</g>
<g>
</g>
<g>
</g>
<g>
</g>
<g>
</g>
<g>
</g>
<g>
</g>
<g>
</g>
<g>
</g>
<g>
</g>
<g>
</g>
<g>
</g>
<g>
</g>
<g>
</g>
</svg>
